HIERARCHY
ROOT Hips
{
  OFFSET 2.92235 44.6225 -2.31472
  CHANNELS 6 Xposition Yposition Zposition Zrotation Xrotation Yrotation
  JOINT Spine
  {
    OFFSET 12.2926 0 0
    CHANNELS 6 Xposition Yposition Zposition Zrotation Xrotation Yrotation
    JOINT Spine1
    {
      OFFSET 19.4953 -0.0133236 0
      CHANNELS 6 Xposition Yposition Zposition Zrotation Xrotation Yrotation
      JOINT Spine2
      {
        OFFSET 20.5878 -0.000900907 0
        CHANNELS 6 Xposition Yposition Zposition Zrotation Xrotation Yrotation
        JOINT LeftShoulder
        {
          OFFSET 25.3216 -12.3262 14.3928
          CHANNELS 6 Xposition Yposition Zposition Zrotation Xrotation Yrotation
          JOINT LeftArm
          {
            OFFSET 29.1658 0 -0.011722
            CHANNELS 6 Xposition Yposition Zposition Zrotation Xrotation Yrotation
            JOINT LeftForeArm
            {
              OFFSET 34.2729 0.000109985 -4.95054e-05
              CHANNELS 6 Xposition Yposition Zposition Zrotation Xrotation Yrotation
              JOINT LeftHand
              {
                OFFSET 27.0039 0.0005008 0.00137724
                CHANNELS 6 Xposition Yposition Zposition Zrotation Xrotation Yrotation
                End Site
                {
                  OFFSET 0 0 0
                }
              }
            }
          }
        }
        JOINT Neck
        {
          OFFSET 33.3144 -4.47583 4.86194e-05
          CHANNELS 6 Xposition Yposition Zposition Zrotation Xrotation Yrotation
          JOINT Head
          {
            OFFSET 25.2277 2.04935e-05 6.99777e-05
            CHANNELS 6 Xposition Yposition Zposition Zrotation Xrotation Yrotation
            End Site
            {
              OFFSET 0 0 0
            }
          }
        }
        JOINT RightShoulder
        {
          OFFSET 25.3216 -12.3265 -14.3925
          CHANNELS 6 Xposition Yposition Zposition Zrotation Xrotation Yrotation
          JOINT RightArm
          {
            OFFSET 29.171 0.000287482 0.00121514
            CHANNELS 6 Xposition Yposition Zposition Zrotation Xrotation Yrotation
            JOINT RightForeArm
            {
              OFFSET 34.2723 0.00423302 -0.00319291
              CHANNELS 6 Xposition Yposition Zposition Zrotation Xrotation Yrotation
              JOINT RightHand
              {
                OFFSET 27.0066 -0.00358093 0.000639583
                CHANNELS 6 Xposition Yposition Zposition Zrotation Xrotation Yrotation
                End Site
                {
                  OFFSET 0 0 0
                }
              }
            }
          }
        }
      }
    }
  }
  JOINT LeftUpLeg
  {
    OFFSET -1.76553 0.414322 32.1765
    CHANNELS 6 Xposition Yposition Zposition Zrotation Xrotation Yrotation
    JOINT LeftLeg
    {
      OFFSET 28.0781 0.00818547 0.00377638
      CHANNELS 6 Xposition Yposition Zposition Zrotation Xrotation Yrotation
      JOINT LeftFoot
      {
        OFFSET 17.9704 -0.000417844 0
        CHANNELS 6 Xposition Yposition Zposition Zrotation Xrotation Yrotation
        JOINT LeftToe
        {
          OFFSET 6.72704 11.0288 -2.40722e-05
          CHANNELS 6 Xposition Yposition Zposition Zrotation Xrotation Yrotation
          End Site
          {
            OFFSET 0 0 0
          }
        }
      }
    }
  }
  JOINT RightUpLeg
  {
    OFFSET -1.76546 0.414066 -32.1766
    CHANNELS 6 Xposition Yposition Zposition Zrotation Xrotation Yrotation
    JOINT RightLeg
    {
      OFFSET 28.0785 0.00199001 0
      CHANNELS 6 Xposition Yposition Zposition Zrotation Xrotation Yrotation
      JOINT RightFoot
      {
        OFFSET 17.9705 -0.00308557 2.31631e-05
        CHANNELS 6 Xposition Yposition Zposition Zrotation Xrotation Yrotation
        JOINT RightToe
        {
          OFFSET 6.72693 11.0289 0.000416116
          CHANNELS 6 Xposition Yposition Zposition Zrotation Xrotation Yrotation
          End Site
          {
            OFFSET 0 0 0
          }
        }
      }
    }
  }
}
MOTION
Frames:	4
Frame Time:	0.0333333
2.92235 44.6225 -2.31472 110.585 81.8432 -17.1728 12.2926 6.90117e-06 -3.30633e-06 22.1218 13.8505 -8.6034 19.4953 -0.0133243 -9.45561e-06 -8.53871 -3.26847e-05 0.00199279 20.5878 -0.000902436 -1.90321e-06 6.4904 5.22424 -3.75177 25.3216 -12.3262 14.3928 179.618 -12.5851 -94.6898 29.1658 -3.14066e-06 -0.0117178 7.82933 4.14377 48.9036 34.2728 -1.30338e-06 -2.93371e-06 -42.9952 2.04814 -0.162607 27.0039 0.000513223 0.00137274 1.06706 -85.0699 6.42597 33.3143 -4.47577 5.07737e-05 36.3662 -7.4863 12.5219 25.2276 -9.82297e-06 6.91628e-05 -21.2784 6.90017 -4.86607 25.3216 -12.3265 -14.3925 179.917 -7.87366 91.6786 29.1709 0.000284558 0.00121801 -32.1199 18.9022 -28.5208 34.2723 0.000166293 1.65921e-06 -46.9613 13.4794 16.1028 27.0066 -0.00359229 0.000644995 -167.021 85.6102 161.513 -1.76553 0.414317 32.1765 -53.6913 -1.60967 -176.812 28.0781 0.000270984 5.13876e-07 -25.2267 -9.15904 -4.30017 17.9705 -0.000408045 9.22928e-07 -5.42209 -22.8407 5.50242 6.72703 11.0288 -1.84512e-05 90 -0.000147196 0.000177652 -1.76546 0.414069 -32.1766 41.4157 -5.63397 165.166 28.0785 0.00199868 -4.55729e-06 -25.973 -1.6651 -0.810408 17.9705 -0.00308241 2.29883e-05 24.6508 9.29383 4.16905 6.72693 11.0289 0.000415374 89.9999 0.00152197 -0.00696289 
3.46795 43.8385 0.916535 111.392 81.7755 -17.571 12.2926 6.90117e-06 -3.30633e-06 22.2059 13.6959 -9.33098 19.4953 -0.0133243 -9.45561e-06 -8.5387 -3.83266e-05 0.00224454 20.5878 -0.000902436 -1.90321e-06 6.52979 5.61848 -4.20006 25.3216 -12.3262 14.3928 179.603 -12.6308 -94.8722 29.1658 -3.14066e-06 -0.0117178 7.66117 4.04579 49.2364 34.2728 -1.30338e-06 -2.93371e-06 -40.9452 1.66668 -0.376729 27.0039 0.000513223 0.00137274 5.2796 -86.1247 9.31695 33.3143 -4.47577 5.07737e-05 37.0093 -7.21096 13.4504 25.2276 -9.82297e-06 6.91628e-05 -21.2435 6.84868 -5.28266 25.3216 -12.3265 -14.3925 179.915 -7.57766 91.7117 29.1709 0.000284558 0.00121801 -33.0231 19.5662 -28.9647 34.2723 0.000166293 1.65921e-06 -48.8823 12.5528 16.2213 27.0066 -0.00359229 0.000644995 -157.536 87.0026 149.893 -1.76553 0.414317 32.1765 -50.0773 -0.834435 -178.218 28.0781 0.000270984 5.13876e-07 -18.7457 -9.93276 -3.34329 17.9705 -0.000408045 9.22928e-07 -12.7337 -22.7593 5.03729 6.72703 11.0288 -1.84512e-05 90 -0.000157477 0.000188541 -1.76546 0.414069 -32.1766 42.626 -6.19517 164.205 28.0785 0.00199868 -4.55729e-06 -27.5571 -0.894774 -0.466308 17.9705 -0.00308241 2.29883e-05 17.8354 7.70733 4.52602 6.72693 11.0289 0.000415374 89.9999 0.00153007 -0.00696739 
4.04686 43.0544 4.23701 113.074 82.0514 -18.894 12.2926 6.90117e-06 -3.30633e-06 22.1766 12.8379 -9.83316 19.4953 -0.0133243 -9.45561e-06 -8.53868 -2.23707e-05 0.00247124 20.5878 -0.000902436 -1.90321e-06 6.55778 5.80504 -4.61097 25.3216 -12.3262 14.3928 179.574 -12.7157 -95.2111 29.1658 -3.14066e-06 -0.0117178 7.2104 3.72487 49.5866 34.2728 -1.30338e-06 -2.93371e-06 -38.8912 1.2034 -0.6752 27.0039 0.000513223 0.00137274 15.3847 -87.2039 16.4062 33.3143 -4.47577 5.07737e-05 38.4492 -6.24579 14.0776 25.2276 -9.82297e-06 6.91628e-05 -21.8643 6.50702 -5.50366 25.3216 -12.3265 -14.3925 179.907 -6.83356 91.7671 29.1709 0.000284558 0.00121801 -33.9278 20.2301 -29.3746 34.2723 0.000166293 1.65921e-06 -50.8076 11.6532 16.31 27.0066 -0.00359229 0.000644995 -128.037 88.1684 118.266 -1.76553 0.414317 32.1765 -49.2698 -0.237524 -179.482 28.0781 0.000270984 5.13876e-07 -22.8441 -9.77936 -4.09266 17.9705 -0.000408045 9.22928e-07 -16.7428 -22.95 3.67914 6.72703 11.0288 -1.84512e-05 90 -0.000148914 0.000173307 -1.76546 0.414069 -32.1766 45.0584 -6.89005 163.484 28.0785 0.00199868 -4.55729e-06 -28.0776 0.539618 0.288425 17.9705 -0.00308241 2.29883e-05 11.055 5.91807 4.65905 6.72693 11.0289 0.000415374 89.9999 0.00151791 -0.00697152 
4.63412 42.3504 7.63536 115.648 82.5879 -21.1837 12.2926 6.90117e-06 -3.30633e-06 22.0386 11.4435 -10.1069 19.4953 -0.0133243 -9.45561e-06 -8.53868 -1.29732e-05 0.00268102 20.5878 -0.000902436 -1.90321e-06 6.57902 5.79493 -4.98444 25.3216 -12.3262 14.3928 179.558 -12.7615 -95.3936 29.1658 -3.14066e-06 -0.0117178 6.51734 3.18588 49.6764 34.2728 -1.30338e-06 -2.93371e-06 -36.9195 0.443575 -1.19645 27.0039 0.000513223 0.00137274 33.7553 -88.1554 31.4867 33.3143 -4.47577 5.07737e-05 39.9766 -4.85803 14.311 25.2276 -9.82297e-06 6.91628e-05 -22.5764 5.9085 -5.59839 25.3216 -12.3265 -14.3925 179.895 -5.8573 91.7788 29.1709 0.000284558 0.00121801 -34.6197 20.8678 -29.9978 34.2723 0.000166293 1.65921e-06 -52.6121 10.5359 16.0121 27.0066 -0.00359229 0.000644995 -73.5743 88.1069 61.4663 -1.76553 0.414317 32.1765 -51.6536 0.185863 179.616 28.0781 0.000270984 5.13876e-07 -35.4162 -8.75004 -6.17389 17.9705 -0.000408045 9.22928e-07 -11.0104 -23.0802 3.87553 6.72703 11.0288 -1.84512e-05 89.9999 -6.63323e-05 0.000317401 -1.76546 0.414069 -32.1766 46.7837 -7.47046 162.834 28.0785 0.00199868 -4.55729e-06 -29.2629 2.29058 1.2835 17.9705 -0.00308241 2.29883e-05 5.802 3.84827 4.55019 6.72693 11.0289 0.000415374 89.9999 0.00153221 -0.00697776 
